<?xml version="1.0" standalone="no"?>
<!DOCTYPE svg PUBLIC "-//W3C//DTD SVG 20010904//EN"
 "http://www.w3.org/TR/2001/REC-SVG-20010904/DTD/svg10.dtd">
<svg version="1.0" xmlns="http://www.w3.org/2000/svg"
 width="2500.000000pt" height="2500.000000pt" viewBox="0 0 2500.000000 2500.000000"
 preserveAspectRatio="xMidYMid meet">

<g transform="translate(0.000000,2500.000000) scale(0.100000,-0.100000)"
fill="#FFFFFF" stroke="none">
<path d="M1420 24993 c-262 -26 -550 -133 -767 -286 -112 -79 -281 -248 -360
-360 -129 -183 -231 -427 -270 -647 -17 -102 -18 -454 -18 -11200 0 -10746 1
-11098 18 -11200 39 -220 141 -464 270 -647 79 -112 248 -281 360 -360 180
-127 421 -228 642 -269 97 -18 409 -19 11200 -19 10751 0 11103 1 11205 18
228 41 486 151 666 284 114 86 262 236 342 349 122 172 223 409 269 634 16 80
17 704 21 11135 2 8128 0 11080 -8 11163 -66 659 -530 1199 -1172 1363 -205
52 553 49 -11328 47 -6069 -1 -11051 -3 -11070 -5z m18995 -10033 l0 -235 -77
-7 c-97 -9 -147 -22 -222 -60 -117 -59 -205 -185 -243 -345 -17 -74 -18 -162
-18 -1538 0 -1367 1 -1464 18 -1529 24 -97 72 -189 130 -253 76 -83 220 -143
342 -143 80 0 75 16 75 -246 l0 -234 -64 0 c-89 0 -276 26 -366 50 -41 11
-131 48 -200 82 -116 57 -132 68 -225 162 -87 87 -107 114 -147 196 -51 104
-92 244 -108 372 -13 109 -13 3003 0 3108 39 303 157 516 366 660 164 114 375
177 644 193 106 7 95 34 95 -233z m1330 224 c390 -29 698 -223 830 -519 34
-77 72 -222 85 -327 14 -113 14 -2993 0 -3106 -36 -283 -148 -504 -325 -639
-173 -132 -390 -204 -658 -219 l-117 -7 0 235 c0 265 -5 248 79 248 56 0 143
21 208 52 70 32 163 130 201 209 71 149 67 41 67 1664 0 1376 -1 1464 -18
1538 -59 249 -213 386 -454 404 l-83 6 0 239 0 239 53 -5 c28 -3 88 -8 132
-12z m-13115 -2129 l0 -1545 651 0 652 0 -7 -77 c-3 -42 -6 -163 -6 -270 l0
-193 -955 0 -955 0 0 1815 0 1815 310 0 310 0 0 -1545z m2132 1538 c2 -5 2
-140 0 -300 l-4 -293 -294 0 -294 0 0 300 0 300 294 0 c162 0 296 -3 298 -7z
m3000 -1040 l3 -1048 109 0 110 0 183 485 c100 267 190 504 199 528 l16 42
290 0 c272 0 290 -1 286 -17 -3 -10 -114 -300 -247 -645 -132 -344 -241 -629
-241 -632 0 -4 110 -294 245 -645 135 -352 245 -642 245 -645 0 -3 -130 -6
-289 -6 l-289 0 -27 68 c-14 37 -103 274 -198 527 l-173 460 -109 0 -110 0 -3
-527 -2 -528 -275 0 -275 0 0 1815 0 1815 275 0 275 0 2 -1047z m5198 -768 l0
-1815 -201 2 -201 3 -30 83 c-16 45 -33 82 -37 82 -4 0 -14 -12 -22 -26 -43
-82 -202 -181 -334 -209 -108 -23 -313 -20 -411 6 -230 60 -368 213 -419 465
-14 69 -15 180 -13 919 3 765 5 845 21 900 68 232 224 384 445 430 93 19 287
19 368 0 80 -18 164 -56 225 -100 l49 -35 0 555 0 555 280 0 280 0 0 -1815z
m-11660 1035 l0 -260 220 0 220 0 0 -235 0 -235 -220 0 -220 0 0 -715 c0 -745
2 -785 43 -847 40 -61 93 -77 252 -80 l140 -3 3 -238 2 -239 -282 4 c-278 4
-284 4 -362 31 -173 61 -268 161 -322 343 -17 54 -19 130 -24 899 l-5 840
-177 3 -178 2 0 235 0 235 180 0 180 0 0 260 0 260 275 0 275 0 0 -260z
m-4015 -210 c119 -38 217 -106 280 -198 9 -12 20 -20 25 -17 4 3 21 41 36 85
l29 80 197 0 198 0 0 -1529 c0 -1652 2 -1597 -53 -1742 -107 -283 -385 -439
-782 -439 -294 0 -509 78 -656 238 -116 127 -172 286 -173 487 l-1 110 271 2
270 2 11 -93 c21 -176 95 -254 249 -264 136 -9 214 28 272 127 27 45 27 50 32
256 3 116 3 234 0 262 l-5 53 -30 -21 c-60 -40 -146 -79 -222 -100 -67 -19
-96 -21 -223 -17 -124 4 -156 9 -224 32 -105 36 -160 69 -227 137 -69 69 -130
186 -156 296 -17 72 -18 140 -18 918 0 786 1 845 19 910 48 183 147 315 290
385 118 59 182 70 366 66 126 -3 168 -7 225 -26z m2299 1 c234 -63 407 -210
483 -409 49 -132 53 -179 53 -673 l0 -459 -557 -2 -558 -3 0 -285 0 -285 28
-57 c53 -107 144 -155 278 -146 87 7 153 39 196 96 46 61 53 97 53 280 l0 162
280 0 280 0 0 -144 c0 -158 -14 -254 -53 -358 -76 -201 -249 -347 -487 -410
-76 -20 -108 -23 -295 -23 -188 0 -219 2 -295 23 -272 73 -433 226 -512 484
-22 72 -22 81 -26 808 -2 471 1 763 7 813 44 325 253 538 590 602 118 22 431
14 535 -14z m6758 14 c245 -51 400 -220 454 -493 12 -61 14 -252 14 -1118 l0
-1044 -275 0 -274 0 -3 988 c-3 737 -7 996 -16 1022 -22 65 -69 128 -112 150
-63 32 -142 43 -216 31 -104 -19 -163 -66 -202 -163 -16 -39 -17 -126 -20
-1035 l-3 -993 -274 0 -275 0 0 1295 0 1295 197 -2 197 -3 31 -82 c16 -45 33
-84 36 -88 4 -3 16 10 28 29 64 103 230 200 376 219 79 11 269 6 337 -8z
m3933 1 c311 -55 509 -228 587 -511 21 -76 22 -103 26 -562 l3 -483 -560 0
-561 0 0 -273 c0 -309 6 -345 66 -415 58 -69 102 -86 214 -87 120 0 177 25
227 99 46 68 53 102 53 279 l0 157 281 0 282 0 -6 -167 c-4 -125 -11 -189 -26
-247 -76 -288 -288 -467 -613 -517 -114 -18 -395 -6 -493 20 -211 55 -371 176
-453 341 -81 162 -77 116 -77 1005 0 873 -2 838 65 984 93 198 275 329 525
376 96 18 360 18 460 1z m-5535 -1361 l0 -1295 -275 0 -275 0 0 1295 0 1295
275 0 275 0 0 -1295z"/>
<path d="M18043 13160 c-84 -18 -136 -61 -175 -145 l-23 -50 -3 -665 c-2 -366
0 -688 3 -716 9 -72 58 -152 112 -182 61 -34 147 -46 229 -33 92 14 140 48
179 126 l30 60 0 710 c0 655 -1 713 -17 747 -26 55 -78 109 -123 129 -49 21
-155 31 -212 19z"/>
<path d="M3129 13157 c-66 -15 -98 -34 -133 -80 -63 -82 -61 -55 -61 -807 0
-649 1 -688 19 -735 39 -103 96 -150 200 -166 139 -22 246 22 301 121 l30 55
3 706 c2 695 2 708 -18 763 -24 62 -90 130 -137 139 -70 14 -153 15 -204 4z"/>
<path d="M5172 13222 c-89 -32 -142 -100 -161 -206 -6 -33 -11 -169 -11 -303
l0 -243 281 0 280 0 -3 298 c-3 286 -4 299 -25 337 -13 22 -31 50 -42 63 -54
62 -217 90 -319 54z"/>
<path d="M15959 13229 c-55 -12 -104 -45 -134 -88 -50 -73 -55 -111 -55 -403
l0 -268 281 0 280 0 -3 293 -3 292 -27 51 c-15 28 -41 63 -58 77 -58 49 -183
70 -281 46z"/>
</g>
</svg>
